<svg width="100%" height="170" viewBox="0 0 1000 170" xmlns="http://www.w3.org/2000/svg">
  <defs>
    <linearGradient id="bgGrad" x1="0%" y1="0%" x2="100%" y2="100%">
      <stop offset="0%" stop-color="#160A16"/>
      <stop offset="55%" stop-color="#0B0F22"/>
      <stop offset="100%" stop-color="#05060C"/>
    </linearGradient>
    <linearGradient id="titleGrad" x1="0%" y1="0%" x2="100%" y2="0%">
      <stop offset="0%" stop-color="#FF4D4D"/>
      <stop offset="100%" stop-color="#C4121C"/>
    </linearGradient>
    <filter id="bigBlur" x="-50%" y="-50%" width="200%" height="200%"><feGaussianBlur stdDeviation="45"/></filter>
    <pattern id="halftone" width="12" height="12" patternUnits="userSpaceOnUse">
      <circle cx="6" cy="6" r="1.1" fill="#38BDF8" opacity="0.3"/>
    </pattern>
  </defs>

  <rect width="1000" height="170" rx="8" fill="url(#bgGrad)"/>
  <circle cx="80" cy="20" r="90" fill="#DC2626" opacity="0.2" filter="url(#bigBlur)"/>
  <rect x="0" y="80" width="180" height="90" fill="url(#halftone)" opacity="0.45"/>

  <g stroke="#FCA5A5" stroke-width="1" opacity="0.15">
    <path d="M 0 0 L 100 90" fill="none"/>
    <path d="M 0 0 L 10 120" fill="none"/>
  </g>

  <g stroke="#38BDF8" stroke-width="1.6" opacity="0.75" fill="none">
    <path d="M12,26 L12,12 L26,12"/>
    <path d="M974,12 L988,12 L988,26"/>
  </g>

  <text x="42" y="53" font-family="'Segoe UI', Arial, sans-serif" font-size="27" font-weight="800" font-style="italic" fill="#1D4ED8" opacity="0.8">WEBSITE LABORATORIUM</text>
  <text x="40" y="50" font-family="'Segoe UI', Arial, sans-serif" font-size="27" font-weight="800" font-style="italic" fill="url(#titleGrad)">WEBSITE LABORATORIUM</text>

  <text x="42" y="75" font-family="'Segoe UI', Arial, sans-serif" font-size="13" font-weight="700" fill="#7DD3FC" letter-spacing="1">LAB. PEMROGRAMAN &amp; INFORMATIKA · 2024</text>

  <text x="42" y="140" font-family="Consolas, monospace" font-size="13" fill="#94A3B8">HTML · CSS · Bootstrap 5</text>

  <g transform="translate(898,95) rotate(-12)">
    <circle r="38" fill="none" stroke="#E4212B" stroke-width="3" opacity="0.9"/>
    <circle r="31" fill="none" stroke="#E4212B" stroke-width="1.2" opacity="0.7"/>
    <text x="0" y="-2" text-anchor="middle" font-family="'Segoe UI', Arial, sans-serif" font-size="14" font-weight="800" fill="#FCA5A5">DONE</text>
    <text x="0" y="14" text-anchor="middle" font-family="'Segoe UI', Arial, sans-serif" font-size="10" font-weight="800" fill="#FCA5A5">2024</text>
  </g>
</svg>
